<?xml version="1.0" encoding="UTF-8" standalone="no"?>
<!-- Created with Inkscape (http://www.inkscape.org/) -->

<svg
   width="200mm"
   height="50mm"
   viewBox="0 0 200 50"
   version="1.1"
   id="svg5"
   xml:space="preserve"
   xmlns:xlink="http://www.w3.org/1999/xlink"
   xmlns="http://www.w3.org/2000/svg"
   xmlns:svg="http://www.w3.org/2000/svg"><defs
     id="defs2"><linearGradient
       id="linearGradient3334"><stop
         style="stop-color:#113f67;stop-opacity:1;"
         offset="0"
         id="stop3330" /><stop
         style="stop-color:#000000;stop-opacity:1;"
         offset="1"
         id="stop3332" /></linearGradient><rect
       x="56.028198"
       y="64.224648"
       width="646.09174"
       height="188.76285"
       id="rect49052" /><linearGradient
       xlink:href="#linearGradient3334"
       id="linearGradient3336"
       x1="161.06815"
       y1="187.95729"
       x2="161.06815"
       y2="206.2972"
       gradientUnits="userSpaceOnUse"
       gradientTransform="translate(-37.231552,4.29629)" /></defs><g
     id="layer1"
     transform="translate(-1.4632302,-130.3643)"><g
       id="g298"
       transform="translate(-16.72942,-32.095471)"><rect
         style="fill:url(#linearGradient3336);fill-opacity:1;stroke:none;stroke-width:1.1204;stroke-dasharray:13.4449, 1.1204;stop-color:#000000"
         id="rect1267"
         width="200"
         height="50"
         x="18.19265"
         y="162.45978" /><g
         aria-label="extra-prop-types"
         transform="matrix(0.29454352,0,0,0.29454352,2.8299633,156.18121)"
         id="text49050"
         style="font-size:64px;line-height:1.25;letter-spacing:2px;word-spacing:0px;white-space:pre;shape-inside:url(#rect49052);display:inline;fill:#ffffff"><path
           d="m 106.86914,102.09961 q 0,-6.562501 -1.21875,-9.187501 -1.21875,-2.65625 -4.15625,-2.65625 -2.843749,0 -4.093749,2.59375 -1.21875,2.59375 -1.21875,8.687501 v 0.5625 z m 12.15625,3.71875 H 96.181641 v 0.25 q 0,6.4375 1.9375,9.3125 1.937499,2.84375 6.249999,2.84375 3.59375,0 5.8125,-1.90625 2.21875,-1.90625 2.84375,-5.53125 h 5.1875 q -1.34375,5.65625 -5.34375,8.3125 -4,2.65625 -11.1875,2.65625 -8.624999,0 -13.249999,-4.53125 -4.59375,-4.5625 -4.59375,-13 0,-8.250001 4.71875,-12.875001 4.71875,-4.625 13.124999,-4.625 8.25,0 12.65625,4.875 4.40625,4.84375 4.6875,14.218751 z"
           style="font-weight:bold;font-family:'DejaVu Serif';-inkscape-font-specification:'DejaVu Serif Bold';text-align:end;text-anchor:end"
           id="path69934" /><path
           d="m 146.40039,99.662109 5.875,-8.25 h -4.09375 v -3.78125 h 12.9375 v 3.78125 h -4.40625 l -8.46875,11.843751 9.875,13.8125 h 4.40625 v 3.78125 h -21.125 v -3.78125 h 4.28125 l -6.25,-8.75 -6.28125,8.75 h 4.46875 v 3.78125 h -13.6875 v -3.78125 h 4.75 l 8.8125,-12.40625 -9.53125,-13.250001 h -3.71875 v -3.78125 h 20.28125 v 3.78125 h -4.03125 z"
           style="font-weight:bold;font-family:'DejaVu Serif';-inkscape-font-specification:'DejaVu Serif Bold';text-align:end;text-anchor:end"
           id="path69936" /><path
           d="m 170.43164,91.412109 h -4.8125 v -3.78125 h 4.8125 v -10.3125 h 11.0625 v 10.3125 h 9.21875 v 3.78125 h -9.21875 v 20.343751 q 0,4.34375 0.6875,5.40625 0.6875,1.0625 2.5,1.0625 2,0 2.96875,-1.34375 0.96875,-1.34375 1.03125,-4.15625 h 4.65625 q -0.28125,5 -2.75,7.03125 -2.4375,2 -8.4375,2 -6.84375,0 -9.28125,-2.125 -2.4375,-2.15625 -2.4375,-7.875 z"
           style="font-weight:bold;font-family:'DejaVu Serif';-inkscape-font-specification:'DejaVu Serif Bold';text-align:end;text-anchor:end"
           id="path69938" /><path
           d="m 230.02539,87.255859 v 9.90625 h -3.53125 q -0.1875,-2.65625 -1.4375,-3.9375 -1.25,-1.3125 -3.625,-1.3125 -3.625,0 -5.71875,3.1875 -2.09375,3.1875 -2.09375,8.843751 v 13.125 h 6.03125 v 3.78125 h -21.8125 v -3.78125 h 4.71875 V 91.412109 h -5.0625 v -3.78125 h 16.125 v 5.90625 q 1.625,-3.46875 4.28125,-5.125 2.6875,-1.6875 6.5625,-1.6875 0.96875,0 2.34375,0.15625 1.40625,0.125 3.21875,0.375 z"
           style="font-weight:bold;font-family:'DejaVu Serif';-inkscape-font-specification:'DejaVu Serif Bold';text-align:end;text-anchor:end"
           id="path69940" /><path
           d="m 266.61914,100.44336 v 16.625 h 4.75 v 3.78125 h -15.8125 v -4.21875 q -2.1875,2.625 -4.875,3.875 -2.6875,1.25 -6.125,1.25 -5.09375,0 -7.84375,-2.71875 -2.71875,-2.75 -2.71875,-7.84375 0,-5.59375 3.90625,-8.375 3.9375,-2.78125 11.84375,-2.78125 h 5.8125 v -1.968751 q 0,-4.03125 -1.90625,-5.9375 -1.90625,-1.9375 -5.90625,-1.9375 -3.3125,0 -5.125,1.375 -1.78125,1.34375 -2.53125,4.4375 h -3.53125 v -7.15625 q 2.96875,-1.0625 6.15625,-1.59375 3.1875,-0.53125 6.71875,-0.53125 8.90625,0 13.03125,3.3125 4.15625,3.3125 4.15625,10.406251 z m -11.0625,9.96875 v -6.65625 h -4.15625 q -3.09375,0 -4.75,1.6875 -1.65625,1.6875 -1.65625,4.84375 0,3.15625 1.1875,4.71875 1.21875,1.5625 3.6875,1.5625 2.5625,0 4.125,-1.6875 1.5625,-1.6875 1.5625,-4.46875 z"
           style="font-weight:bold;font-family:'DejaVu Serif';-inkscape-font-specification:'DejaVu Serif Bold';text-align:end;text-anchor:end"
           id="path69942" /><path
           d="m 278.30664,99.474609 h 19.625 v 8.437501 h -19.625 z"
           style="font-weight:bold;font-family:'DejaVu Serif';-inkscape-font-specification:'DejaVu Serif Bold';text-align:end;text-anchor:end"
           id="path69944" /><path
           d="m 320.68164,102.59961 v 3.28125 q 0,5.8125 1.46875,8.40625 1.5,2.59375 4.8125,2.59375 3.40625,0 4.78125,-2.75 1.40625,-2.75 1.40625,-9.90625 0,-7.156251 -1.40625,-9.875001 -1.375,-2.75 -4.78125,-2.75 -3.3125,0 -4.8125,2.59375 -1.46875,2.59375 -1.46875,8.406251 z m -11.0625,-11.187501 h -4.75 v -3.78125 h 15.8125 v 4.21875 q 1.40625,-2.59375 3.78125,-3.84375 2.375,-1.28125 5.875,-1.28125 7.09375,0 11.15625,4.6875 4.09375,4.65625 4.09375,12.812501 0,8.15625 -4.09375,12.84375 -4.0625,4.6875 -11.15625,4.6875 -3.5,0 -5.875,-1.25 -2.375,-1.28125 -3.78125,-3.875 v 13.75 h 5.125 v 3.78125 h -20.9375 v -3.78125 h 4.75 z"
           style="font-weight:bold;font-family:'DejaVu Serif';-inkscape-font-specification:'DejaVu Serif Bold';text-align:end;text-anchor:end"
           id="path69946" /><path
           d="m 384.52539,87.255859 v 9.90625 h -3.53125 q -0.1875,-2.65625 -1.4375,-3.9375 -1.25,-1.3125 -3.625,-1.3125 -3.625,0 -5.71875,3.1875 -2.09375,3.1875 -2.09375,8.843751 v 13.125 h 6.03125 v 3.78125 h -21.8125 v -3.78125 h 4.71875 V 91.412109 h -5.0625 v -3.78125 h 16.125 v 5.90625 q 1.625,-3.46875 4.28125,-5.125 2.6875,-1.6875 6.5625,-1.6875 0.96875,0 2.34375,0.15625 1.40625,0.125 3.21875,0.375 z"
           style="font-weight:bold;font-family:'DejaVu Serif';-inkscape-font-specification:'DejaVu Serif Bold';text-align:end;text-anchor:end"
           id="path69948" /><path
           d="m 407.24414,118.22461 q 3.5,0 4.90625,-3 1.4375,-3 1.4375,-11 0,-8.000001 -1.40625,-10.968751 -1.40625,-3 -4.9375,-3 -3.53125,0 -4.96875,3.03125 -1.4375,3 -1.4375,10.937501 0,7.9375 1.4375,10.96875 1.4375,3.03125 4.96875,3.03125 z m 0,3.53125 q -8.78125,0 -13.78125,-4.65625 -4.96875,-4.6875 -4.96875,-12.875 0,-8.218751 4.96875,-12.843751 5,-4.65625 13.78125,-4.65625 8.8125,0 13.78125,4.65625 4.96875,4.625 4.96875,12.843751 0,8.1875 -5,12.875 -4.96875,4.65625 -13.75,4.65625 z"
           style="font-weight:bold;font-family:'DejaVu Serif';-inkscape-font-specification:'DejaVu Serif Bold';text-align:end;text-anchor:end"
           id="path69950" /><path
           d="m 447.83789,102.59961 v 3.28125 q 0,5.8125 1.46875,8.40625 1.5,2.59375 4.8125,2.59375 3.40625,0 4.78125,-2.75 1.40625,-2.75 1.40625,-9.90625 0,-7.156251 -1.40625,-9.875001 -1.375,-2.75 -4.78125,-2.75 -3.3125,0 -4.8125,2.59375 -1.46875,2.59375 -1.46875,8.406251 z m -11.0625,-11.187501 h -4.75 v -3.78125 h 15.8125 v 4.21875 q 1.40625,-2.59375 3.78125,-3.84375 2.375,-1.28125 5.875,-1.28125 7.09375,0 11.15625,4.6875 4.09375,4.65625 4.09375,12.812501 0,8.15625 -4.09375,12.84375 -4.0625,4.6875 -11.15625,4.6875 -3.5,0 -5.875,-1.25 -2.375,-1.28125 -3.78125,-3.875 v 13.75 h 5.125 v 3.78125 h -20.9375 v -3.78125 h 4.75 z"
           style="font-weight:bold;font-family:'DejaVu Serif';-inkscape-font-specification:'DejaVu Serif Bold';text-align:end;text-anchor:end"
           id="path69952" /><path
           d="m 480.77539,99.474609 h 19.625 v 8.437501 h -19.625 z"
           style="font-weight:bold;font-family:'DejaVu Serif';-inkscape-font-specification:'DejaVu Serif Bold';text-align:end;text-anchor:end"
           id="path69954" /><path
           d="m 512.21289,91.412109 h -4.8125 v -3.78125 h 4.8125 v -10.3125 h 11.0625 v 10.3125 h 9.21875 v 3.78125 h -9.21875 v 20.343751 q 0,4.34375 0.6875,5.40625 0.6875,1.0625 2.5,1.0625 2,0 2.96875,-1.34375 0.96875,-1.34375 1.03125,-4.15625 h 4.65625 q -0.28125,5 -2.75,7.03125 -2.4375,2 -8.4375,2 -6.84375,0 -9.28125,-2.125 -2.4375,-2.15625 -2.4375,-7.875 z"
           style="font-weight:bold;font-family:'DejaVu Serif';-inkscape-font-specification:'DejaVu Serif Bold';text-align:end;text-anchor:end"
           id="path69956" /><path
           d="m 557.40039,128.34961 q -1.5,3.65625 -3.625,5.1875 -2.125,1.53125 -5.71875,1.53125 -1.53125,0 -3.40625,-0.34375 -1.875,-0.34375 -4.09375,-1 v -6.9375 l 3.53125,0.0312 q 0.0937,2.40625 1.125,3.5625 1.0625,1.15625 3.15625,1.15625 2.03125,0 3.28125,-1.125 1.25,-1.09375 2.5,-4.1875 l 0.5,-1.15625 -14.46875,-33.656251 h -3.59375 v -3.78125 h 19.15625 v 3.78125 h -3.96875 l 8.4375,19.656251 7.875,-19.656251 h -4.40625 v -3.78125 h 12.46875 v 3.78125 h -4.03125 z"
           style="font-weight:bold;font-family:'DejaVu Serif';-inkscape-font-specification:'DejaVu Serif Bold';text-align:end;text-anchor:end"
           id="path69958" /><path
           d="m 593.90039,102.59961 v 3.28125 q 0,5.8125 1.46875,8.40625 1.5,2.59375 4.8125,2.59375 3.40625,0 4.78125,-2.75 1.40625,-2.75 1.40625,-9.90625 0,-7.156251 -1.40625,-9.875001 -1.375,-2.75 -4.78125,-2.75 -3.3125,0 -4.8125,2.59375 -1.46875,2.59375 -1.46875,8.406251 z m -11.0625,-11.187501 h -4.75 v -3.78125 h 15.8125 v 4.21875 q 1.40625,-2.59375 3.78125,-3.84375 2.375,-1.28125 5.875,-1.28125 7.09375,0 11.15625,4.6875 4.09375,4.65625 4.09375,12.812501 0,8.15625 -4.09375,12.84375 -4.0625,4.6875 -11.15625,4.6875 -3.5,0 -5.875,-1.25 -2.375,-1.28125 -3.78125,-3.875 v 13.75 h 5.125 v 3.78125 h -20.9375 v -3.78125 h 4.75 z"
           style="font-weight:bold;font-family:'DejaVu Serif';-inkscape-font-specification:'DejaVu Serif Bold';text-align:end;text-anchor:end"
           id="path69960" /><path
           d="m 649.02539,102.09961 q 0,-6.562501 -1.21875,-9.187501 -1.21875,-2.65625 -4.15625,-2.65625 -2.84375,0 -4.09375,2.59375 -1.21875,2.59375 -1.21875,8.687501 v 0.5625 z m 12.15625,3.71875 h -22.84375 v 0.25 q 0,6.4375 1.9375,9.3125 1.9375,2.84375 6.25,2.84375 3.59375,0 5.8125,-1.90625 2.21875,-1.90625 2.84375,-5.53125 h 5.1875 q -1.34375,5.65625 -5.34375,8.3125 -4,2.65625 -11.1875,2.65625 -8.625,0 -13.25,-4.53125 -4.59375,-4.5625 -4.59375,-13 0,-8.250001 4.71875,-12.875001 4.71875,-4.625 13.125,-4.625 8.25,0 12.65625,4.875 4.40625,4.84375 4.6875,14.218751 z"
           style="font-weight:bold;font-family:'DejaVu Serif';-inkscape-font-specification:'DejaVu Serif Bold';text-align:end;text-anchor:end"
           id="path69962" /><path
           d="m 669.08789,119.88086 v -9.28125 h 3.53125 q 0.4375,3.71875 2.78125,5.6875 2.34375,1.9375 6.375,1.9375 3.375,0 5.15625,-1.15625 1.8125,-1.1875 1.8125,-3.375 0,-2 -1.15625,-3.09375 -1.125,-1.09375 -4.40625,-1.90625 l -4.5625,-1.15625 q -5.15625,-1.28125 -7.46875,-3.65625 -2.3125,-2.40625 -2.3125,-6.468751 0,-5.40625 3.75,-8.03125 3.75,-2.65625 11.5625,-2.65625 2.9375,0 6.25,0.5 3.34375,0.46875 7.375,1.5 v 8.375 h -3.53125 q -0.28125,-3.40625 -2.4375,-5.125 -2.125,-1.71875 -6.125,-1.71875 -3.375,0 -5.125,1.09375 -1.71875,1.0625 -1.71875,3.125 0,1.6875 1,2.65625 1,0.96875 3.59375,1.625 l 4.53125,1.15625 q 6.53125,1.656251 9.03125,4.093751 2.5,2.4375 2.5,6.78125 0,5.625 -4.03125,8.3125 -4,2.65625 -12.46875,2.65625 -3.09375,0 -6.5625,-0.46875 -3.46875,-0.46875 -7.34375,-1.40625 z"
           style="font-weight:bold;font-family:'DejaVu Serif';-inkscape-font-specification:'DejaVu Serif Bold';text-align:end;text-anchor:end"
           id="path69964" /></g></g></g></svg>
